HIERARCHY
ROOT Pelvis
{
	OFFSET 0.000000 0.941512 0.000000
	CHANNELS 6 Xposition Yposition Zposition Zrotation Yrotation Xrotation 
	JOINT Pelvis_L_Hip
	{
		OFFSET 0.000000 0.000000 0.000000
		CHANNELS 3 Zrotation Yrotation Xrotation
		JOINT L_Hip
		{
			OFFSET 0.062321 -0.080322 -0.016990
			CHANNELS 3 Zrotation Yrotation Xrotation
			JOINT L_Knee
			{
				OFFSET 0.093051 -0.381305 -0.029784
				CHANNELS 3 Zrotation Yrotation Xrotation
				JOINT L_Ankle
				{
					OFFSET -0.010371 -0.431000 -0.033614
					CHANNELS 3 Zrotation Yrotation Xrotation
					End Site #name: L_Foot
					{
						OFFSET 0.069299 -0.038670 0.119418
					}
				}
			}
		}
	}
	JOINT Pelvis_R_Hip
	{
		OFFSET 0.000000 0.000000 0.000000
		CHANNELS 3 Zrotation Yrotation Xrotation
		JOINT R_Hip
		{
			OFFSET -0.055334 -0.094904 -0.002373
			CHANNELS 3 Zrotation Yrotation Xrotation
			JOINT R_Knee
			{
				OFFSET -0.064207 -0.384370 -0.019592
				CHANNELS 3 Zrotation Yrotation Xrotation
				JOINT R_Ankle
				{
					OFFSET 0.025418 -0.419734 -0.065953
					CHANNELS 3 Zrotation Yrotation Xrotation
					End Site #name: R_Foot
					{
						OFFSET -0.057233 -0.039888 0.132134
					}
				}
			}
		}
	}
	JOINT Pelvis_Spine1
	{
		OFFSET 0.000000 0.000000 0.000000
		CHANNELS 3 Zrotation Yrotation Xrotation
		JOINT Spine1
		{
			OFFSET -0.005562 0.124093 -0.043360
			CHANNELS 3 Zrotation Yrotation Xrotation
			JOINT Spine2
			{
				OFFSET 0.012244 0.139499 0.029894
				CHANNELS 3 Zrotation Yrotation Xrotation
				JOINT Spine3
				{
					OFFSET -0.002556 0.056561 0.009225
					CHANNELS 3 Zrotation Yrotation Xrotation
					JOINT Spine3_Neck
					{
						OFFSET 0.000000 0.000000 0.000000
						CHANNELS 3 Zrotation Yrotation Xrotation
						JOINT Neck
						{
							OFFSET -0.005205 0.217920 -0.024551
							CHANNELS 3 Zrotation Yrotation Xrotation
							End Site #name: Head
							{
								OFFSET 0.002365 0.091850 0.046637
							}
						}
					}
					JOINT Spine3_L_Collar
					{
						OFFSET 0.000000 0.000000 0.000000
						CHANNELS 3 Zrotation Yrotation Xrotation
						JOINT L_Collar
						{
							OFFSET 0.072225 0.116603 -0.009480
							CHANNELS 3 Zrotation Yrotation Xrotation
							JOINT L_Shoulder
							{
								OFFSET 0.115937 -0.058643 -0.021018
								CHANNELS 3 Zrotation Yrotation Xrotation
								JOINT L_Elbow
								{
									OFFSET 0.021994 -0.254722 -0.024492
									CHANNELS 3 Zrotation Yrotation Xrotation
									End Site #name: L_Wrist
									{
										OFFSET 0.048810 -0.240214 0.103329
									}
								}
							}
						}
					}
					JOINT Spine3_R_Collar
					{
						OFFSET 0.000000 0.000000 0.000000
						CHANNELS 3 Zrotation Yrotation Xrotation
						JOINT R_Collar
						{
							OFFSET -0.073372 0.120704 -0.024611
							CHANNELS 3 Zrotation Yrotation Xrotation
							JOINT R_Shoulder
							{
								OFFSET -0.108089 -0.054969 -0.020504
								CHANNELS 3 Zrotation Yrotation Xrotation
								JOINT R_Elbow
								{
									OFFSET -0.033684 -0.260739 0.009889
									CHANNELS 3 Zrotation Yrotation Xrotation
									End Site #name: R_Wrist
									{
										OFFSET -0.067980 -0.232763 0.118463
									}
								}
							}
						}
					}
				}
			}
		}
	}
}
MOTION
Frames: 8
Frame Time: 0.041667
0.000000 0.941274 0.000000 -0.981813 -11.451618 3.440542 0.000000 0.000000 0.000000 -4.401192 -3.475235 -13.795630 8.935544 -2.046331 14.541059 -6.483936 -31.560410 -3.721858 0.000000 0.000000 0.000000 0.516234 0.741411 -4.601606 4.093116 -0.183947 9.981565 -12.390867 -36.007537 8.903770 0.000000 0.000000 0.000000 5.782808 -1.310497 0.235373 -5.844648 0.483731 -5.215366 6.195601 7.543072 6.434388 0.000000 0.000000 0.000000 -27.564182 11.235638 -12.289881 0.000000 0.000000 0.000000 24.738915 4.719252 8.491371 -29.624409 -0.378928 -10.171889 2.349314 -0.183087 -6.507241 0.000000 0.000000 0.000000 -38.139057 12.491870 -3.516957 38.427946 -2.410589 7.053117 -4.956431 0.808273 -13.164220 
-0.000545 0.941307 -0.000049 -0.892981 -11.601802 3.566932 0.000000 0.000000 0.000000 -4.497045 -3.505004 -13.898108 8.995280 -2.053057 14.503247 -6.439246 -31.384019 -3.729590 0.000000 0.000000 0.000000 0.429255 0.762611 -4.715013 4.053878 -0.180421 9.817120 -12.313750 -35.874674 8.907400 0.000000 0.000000 0.000000 5.816075 -1.270336 -0.154699 -5.835590 0.514690 -4.838817 6.050589 7.341233 6.509233 0.000000 0.000000 0.000000 -27.211873 11.072292 -12.443866 0.000000 0.000000 0.000000 24.344828 4.766585 8.359426 -29.241103 -0.402802 -10.241730 2.513513 -0.085631 -6.431126 0.000000 0.000000 0.000000 -37.279029 12.002251 -2.984204 37.064801 -2.238532 6.788431 -5.079823 0.735141 -13.207513 
-0.001310 0.941135 0.000188 -0.821107 -11.859082 3.620088 0.000000 0.000000 0.000000 -4.540724 -3.490429 -13.839713 8.987997 -2.037622 14.375455 -6.374614 -31.175673 -3.758483 0.000000 0.000000 0.000000 0.333675 0.778003 -4.794587 4.046883 -0.177765 9.744716 -12.217987 -35.683826 8.819144 0.000000 0.000000 0.000000 5.776465 -1.232636 -0.392923 -5.750045 0.513485 -4.733750 5.955762 7.221726 6.512869 0.000000 0.000000 0.000000 -27.082246 11.114802 -12.134296 0.000000 0.000000 0.000000 24.228818 4.705590 8.223637 -29.067196 -0.362893 -10.127008 2.493756 -0.039735 -6.132221 0.000000 0.000000 0.000000 -36.617004 11.720612 -2.668825 36.039455 -2.145201 6.661191 -5.331430 0.506142 -12.971206 
-0.002106 0.941025 0.000587 -0.818248 -12.067439 3.602857 0.000000 0.000000 0.000000 -4.534759 -3.467897 -13.757935 9.007330 -2.035126 14.334094 -6.262180 -31.035605 -3.877501 0.000000 0.000000 0.000000 0.329474 0.773317 -4.769044 4.024098 -0.172339 9.676537 -12.130724 -35.510626 8.743696 0.000000 0.000000 0.000000 5.861033 -1.234729 -0.517838 -5.685801 0.516377 -4.607545 5.896026 7.057054 6.521391 0.000000 0.000000 0.000000 -27.034102 11.181001 -11.864167 0.000000 0.000000 0.000000 23.924408 4.689152 8.072112 -28.750527 -0.322801 -10.007036 2.414246 -0.033692 -5.885817 0.000000 0.000000 0.000000 -35.940752 11.494184 -2.423069 35.028886 -2.086774 6.607572 -5.397166 0.390336 -12.696755 
-0.002782 0.941021 0.000863 -0.819000 -12.219372 3.500995 0.000000 0.000000 0.000000 -4.572488 -3.453872 -13.696687 9.090332 -2.056957 14.429365 -6.184773 -31.029947 -3.991771 0.000000 0.000000 0.000000 0.306390 0.760507 -4.692236 4.033498 -0.173554 9.639845 -12.085557 -35.411870 8.676584 0.000000 0.000000 0.000000 5.871100 -1.241918 -0.468158 -5.569264 0.502413 -4.601762 5.907145 6.935493 6.612034 0.000000 0.000000 0.000000 -26.985840 11.217486 -11.702150 0.000000 0.000000 0.000000 23.550053 4.688002 7.932121 -28.429778 -0.307264 -9.967297 2.351040 -0.028640 -5.689459 0.000000 0.000000 0.000000 -35.199714 11.244460 -2.195763 33.900870 -2.048780 6.607386 -5.331993 0.448839 -12.764838 
-0.003495 0.940906 0.001218 -0.820916 -12.313551 3.408241 0.000000 0.000000 0.000000 -4.583625 -3.442704 -13.650649 9.152281 -2.078679 14.568298 -6.112669 -31.023717 -4.095913 0.000000 0.000000 0.000000 0.300386 0.747348 -4.615106 4.052515 -0.174496 9.671072 -12.043771 -35.320923 8.612945 0.000000 0.000000 0.000000 5.807725 -1.231434 -0.436332 -5.502781 0.493947 -4.604942 5.839901 6.866013 6.638099 0.000000 0.000000 0.000000 -26.744594 11.152967 -11.584644 0.000000 0.000000 0.000000 23.587507 4.581020 7.838423 -28.432581 -0.308741 -9.978020 2.373742 0.015423 -5.520510 0.000000 0.000000 0.000000 -34.603800 10.934741 -1.921589 33.332996 -1.988619 6.520310 -5.162667 0.555661 -12.752317 
-0.004062 0.940752 0.001394 -0.833391 -12.366267 3.362969 0.000000 0.000000 0.000000 -4.595029 -3.442977 -13.649265 9.233947 -2.106091 14.718735 -6.005639 -31.002008 -4.243127 0.000000 0.000000 0.000000 0.314488 0.746811 -4.614409 4.088210 -0.176027 9.779288 -12.040270 -35.301737 8.569821 0.000000 0.000000 0.000000 5.710318 -1.211617 -0.425743 -5.478326 0.496644 -4.534365 5.821945 6.846185 6.639383 0.000000 0.000000 0.000000 -26.641896 11.091558 -11.665405 0.000000 0.000000 0.000000 23.687833 4.532645 7.818558 -28.467464 -0.332246 -10.047579 2.290699 -0.038238 -5.584540 0.000000 0.000000 0.000000 -34.413153 10.881842 -1.878480 33.396192 -1.970975 6.474891 -5.080138 0.612296 -12.764019 
-0.004832 0.940645 0.001802 -0.875257 -12.387139 3.294732 0.000000 0.000000 0.000000 -4.531032 -3.406256 -13.518319 9.243610 -2.106227 14.697538 -5.951366 -31.008245 -4.323775 0.000000 0.000000 0.000000 0.390126 0.725639 -4.502313 4.078475 -0.173650 9.774997 -12.029380 -35.270801 8.528137 0.000000 0.000000 0.000000 5.621609 -1.184795 -0.485136 -5.469012 0.504079 -4.427813 5.783518 6.866054 6.658723 0.000000 0.000000 0.000000 -26.462833 11.001653 -11.723407 0.000000 0.000000 0.000000 23.839119 4.568155 7.886840 -28.588610 -0.404771 -10.263275 2.352334 -0.012511 -5.608940 0.000000 0.000000 0.000000 -34.351574 10.872886 -1.879187 33.779982 -1.967072 6.432397 -4.991789 0.658675 -12.713376 
